# xmcd
#
# Track frame offsets:
#	150
#	13187
#	26175
#	39147
#	53887
#	65558
#	76771
#	86273
#	95989
#	107524
#	117731
#	134139
#	145381
#	155415
#	166457
#
# Disc length: 2376 seconds
#
# Revision: 0
# Processed by: cddbd v1.5.1PL0 Copyright (c) Steve Scherf et al.
# Submitted via: dBpowerAMP V4.0
#
DISCID=d009460f
DTITLE=Divers - Forever Country Cd 2
DYEAR=2001
DGENRE=Country
TTITLE0=Patti Page - Tennessee waltz
TTITLE1=Kenny Rogers - Ruby, don't take your love to town
TTITLE2=Ray Price - City lights
TTITLE3=Kingston trio - Tom Dooley
TTITLE4=Johnny Paycheck - Take this job and shove it
TTITLE5=Kitty Wells - It wasn't god who made honky tonk angels
TTITLE6=Merle Travis - Sixteen tons
TTITLE7=Johnny Cash - Ballad of a teenage queen
TTITLE8=Charlie Walker - Pick me up on your way down
TTITLE9=Faron Young - Hello walls
TTITLE10=Townes Van Zandt - Pancho and lefty
TTITLE11=Hank Locklin - Send me the pillow you dream on
TTITLE12=Porter Wagoner - The green green grass of home
TTITLE13=George Jones - I'll share my world with you
TTITLE14=Crystal Gayle - Don't it make my brown eyes blue
EXTD=Forever Country Cd 2
EXTT0=
EXTT1=
EXTT2=
EXTT3=
EXTT4=
EXTT5=
EXTT6=
EXTT7=
EXTT8=
EXTT9=
EXTT10=
EXTT11=
EXTT12=
EXTT13=
EXTT14=
PLAYORDER=
